<svg width="35" height="35" viewBox="0 0 35 35" fill="none" xmlns="http://www.w3.org/2000/svg">
<path d="M26.25 29.5312H2.1875C1.89742 29.5312 1.61922 29.416 1.4141 29.2109C1.20898 29.0058 1.09375 28.7276 1.09375 28.4375V2.1875C1.09375 1.89742 1.20898 1.61922 1.4141 1.4141C1.61922 1.20898 1.89742 1.09375 2.1875 1.09375H26.25C26.5401 1.09375 26.8183 1.20898 27.0234 1.4141C27.2285 1.61922 27.3438 1.89742 27.3438 2.1875V28.4375C27.3438 28.7276 27.2285 29.0058 27.0234 29.2109C26.8183 29.416 26.5401 29.5312 26.25 29.5312ZM3.28125 27.3438H25.1562V3.28125H3.28125V27.3438Z" fill="white"/>
<path d="M32.8125 33.9062H8.75C8.45992 33.9062 8.18172 33.791 7.9766 33.5859C7.77148 33.3808 7.65625 33.1026 7.65625 32.8125C7.65625 32.5224 7.77148 32.2442 7.9766 32.0391C8.18172 31.834 8.45992 31.7188 8.75 31.7188H31.7188V7.65625H30.625C30.3349 7.65625 30.0567 7.54102 29.8516 7.3359C29.6465 7.13078 29.5312 6.85258 29.5312 6.5625C29.5312 6.27242 29.6465 5.99422 29.8516 5.7891C30.0567 5.58398 30.3349 5.46875 30.625 5.46875H32.8125C33.1026 5.46875 33.3808 5.58398 33.5859 5.7891C33.791 5.99422 33.9062 6.27242 33.9062 6.5625V32.8125C33.9062 33.1026 33.791 33.3808 33.5859 33.5859C33.3808 33.791 33.1026 33.9062 32.8125 33.9062Z" fill="white"/>
<path d="M2.18744 23.9093C1.90051 23.9081 1.62554 23.7942 1.42181 23.5921C1.2181 23.3872 1.10376 23.1099 1.10376 22.821C1.10376 22.532 1.2181 22.2548 1.42181 22.0499L5.8515 17.4999C6.34214 16.9988 6.99671 16.691 7.69558 16.6328C8.39445 16.5746 9.09094 16.7698 9.65775 17.1827L13.5843 20.0265C13.7289 20.1289 13.9053 20.1764 14.0817 20.1604C14.2582 20.1443 14.4231 20.0658 14.5468 19.939L18.5937 15.8702C19.1544 15.3289 19.9034 15.0264 20.6828 15.0264C21.4621 15.0264 22.2111 15.3289 22.7718 15.8702L27.0156 20.1687C27.1934 20.3791 27.2852 20.649 27.2726 20.9242C27.2601 21.1995 27.1441 21.4599 26.9479 21.6533C26.7517 21.8468 26.4897 21.959 26.2143 21.9677C25.9389 21.9763 25.6704 21.8807 25.4624 21.6999L21.2187 17.4015C21.1482 17.3273 21.0634 17.2683 20.9694 17.228C20.8753 17.1877 20.7741 17.1669 20.6718 17.1669C20.5695 17.1669 20.4683 17.1877 20.3743 17.228C20.2803 17.2683 20.1954 17.3273 20.1249 17.4015L16.0671 21.503C15.5767 22.0037 14.9231 22.3121 14.2248 22.3723C13.5265 22.4325 12.8298 22.2405 12.2609 21.8311L8.33431 18.9874C8.19184 18.8814 8.01571 18.8307 7.83867 18.8448C7.66163 18.8588 7.49573 18.9367 7.37181 19.064L2.964 23.5812C2.8627 23.6845 2.74191 23.7667 2.6086 23.823C2.4753 23.8794 2.33215 23.9087 2.18744 23.9093Z" fill="white"/>
<path d="M15.1484 14.0657C14.2831 14.0657 13.4373 13.8091 12.7178 13.3284C11.9984 12.8476 11.4376 12.1643 11.1065 11.3649C10.7753 10.5655 10.6887 9.68582 10.8575 8.83716C11.0263 7.98849 11.443 7.20894 12.0548 6.59708C12.6667 5.98523 13.4463 5.56855 14.2949 5.39974C15.1436 5.23093 16.0233 5.31757 16.8227 5.6487C17.6221 5.97984 18.3054 6.54059 18.7861 7.26006C19.2669 7.97952 19.5234 8.82538 19.5234 9.69068C19.5234 10.2652 19.4103 10.8341 19.1904 11.3649C18.9705 11.8957 18.6483 12.378 18.242 12.7843C17.8358 13.1905 17.3535 13.5128 16.8227 13.7326C16.2919 13.9525 15.723 14.0657 15.1484 14.0657ZM15.1484 7.50318C14.7158 7.50318 14.2929 7.63147 13.9331 7.87184C13.5734 8.1122 13.293 8.45384 13.1275 8.85356C12.9619 9.25327 12.9186 9.6931 13.003 10.1174C13.0874 10.5418 13.2957 10.9315 13.6016 11.2375C13.9076 11.5434 14.2973 11.7517 14.7217 11.8361C15.146 11.9205 15.5858 11.8772 15.9856 11.7117C16.3853 11.5461 16.7269 11.2657 16.9673 10.906C17.2076 10.5463 17.3359 10.1233 17.3359 9.69068C17.3359 9.11051 17.1055 8.55412 16.6952 8.14388C16.285 7.73364 15.7286 7.50318 15.1484 7.50318Z" fill="white"/>
</svg>
