<svg width="36" height="35" viewBox="0 0 36 35" fill="none" xmlns="http://www.w3.org/2000/svg">
<path d="M28.8525 2.552H7.1475C4.6545 2.552 2.625 4.52367 2.625 6.94888V28.0524C2.625 30.4762 4.653 32.4493 7.1475 32.4493H28.854C31.347 32.4493 33.3765 30.4776 33.3765 28.0524V6.94888C33.375 4.52367 31.347 2.552 28.8525 2.552ZM31.566 28.051C31.566 29.5049 30.3495 30.6891 28.8525 30.6891H7.1475C5.652 30.6891 4.434 29.5064 4.434 28.051V24.8703L11.733 16.9851L21.5925 25.6987L27.045 21.2814L31.5675 24.9447L31.566 28.051ZM31.566 22.6566L27.0435 18.9933L21.642 23.3683L11.6055 14.4958L4.434 22.2424V6.94888C4.434 5.49492 5.6505 4.31075 7.1475 4.31075H28.854C30.3495 4.31075 31.5675 5.49346 31.5675 6.94888L31.566 22.6566Z" fill="white"/>
<path d="M24.3316 15.7413C26.8246 15.7413 28.8541 13.7696 28.8541 11.3444C28.8541 8.91918 26.8261 6.94751 24.3316 6.94751C21.8386 6.94751 19.8091 8.91918 19.8091 11.3444C19.8091 13.7696 21.8371 15.7413 24.3316 15.7413ZM24.3316 8.70772C25.8271 8.70772 27.0451 9.89043 27.0451 11.3458C27.0451 12.8013 25.8286 13.984 24.3316 13.984C22.8346 13.984 21.6181 12.8013 21.6181 11.3458C21.6181 9.89043 22.8346 8.70772 24.3316 8.70772Z" fill="white"/>
</svg>
