<svg width="25" height="24" viewBox="0 0 25 24" fill="none" xmlns="http://www.w3.org/2000/svg">
<path d="M12.5001 1C10.2338 1 8.01849 1.64514 6.13418 2.85383C4.24986 4.06253 2.78122 5.78049 1.91397 7.79048C1.04671 9.80047 0.8198 12.0122 1.26192 14.146C1.70404 16.2798 2.79534 18.2398 4.39782 19.7782C6.0003 21.3166 8.04198 22.3642 10.2647 22.7886C12.4874 23.2131 14.7913 22.9952 16.885 22.1627C18.9787 21.3301 20.7683 19.9202 22.0273 18.1113C23.2864 16.3023 23.9584 14.1756 23.9584 12C23.9584 9.08262 22.7512 6.28473 20.6024 4.22183C18.4535 2.15893 15.539 1 12.5001 1ZM17.4032 14.707L13.2365 18.707C13.0412 18.8945 12.7763 18.9998 12.5001 18.9998C12.2239 18.9998 11.959 18.8945 11.7636 18.707L7.59696 14.707C7.49747 14.6148 7.41812 14.5044 7.36352 14.3824C7.30893 14.2604 7.28019 14.1292 7.27899 13.9964C7.27779 13.8636 7.30415 13.7319 7.35652 13.609C7.4089 13.4861 7.48624 13.3745 7.58405 13.2806C7.68185 13.1867 7.79816 13.1125 7.92618 13.0622C8.05419 13.0119 8.19136 12.9866 8.32967 12.9877C8.46798 12.9889 8.60467 13.0165 8.73176 13.0689C8.85884 13.1213 8.97379 13.1975 9.06988 13.293L11.4584 15.586V6C11.4584 5.73478 11.5682 5.48043 11.7635 5.29289C11.9589 5.10536 12.2238 5 12.5001 5C12.7764 5 13.0413 5.10536 13.2367 5.29289C13.432 5.48043 13.5418 5.73478 13.5418 6V15.586L15.9303 13.293C16.1268 13.1108 16.3899 13.01 16.663 13.0123C16.9361 13.0146 17.1974 13.1198 17.3905 13.3052C17.5837 13.4906 17.6932 13.7414 17.6956 14.0036C17.698 14.2658 17.593 14.5184 17.4032 14.707Z" fill="white"/>
</svg>
