<svg width="18" height="14" viewBox="0 0 18 14" fill="none" xmlns="http://www.w3.org/2000/svg">
<path d="M9 10.5C8.41887 10.5 7.83773 10.3023 7.34203 9.90172L0 3.98125V12.25C0 13.2161 0.755508 14 1.6875 14H16.3125C17.2445 14 18 13.2165 18 12.25V3.98125L10.6594 9.90573C10.1637 10.3031 9.58008 10.5 9 10.5ZM0.572695 2.96406L8.03285 8.98333C8.60203 9.44271 9.39937 9.44271 9.96855 8.98333L17.4287 2.96406C17.7574 2.6724 18 2.22396 18 1.75C18 0.78349 17.2441 0 16.3125 0H1.6875C0.755508 0 0 0.78349 0 1.75C0 2.22396 0.211289 2.6724 0.572695 2.96406Z" fill="#AF0314"/>
</svg>
