<svg width="177" height="179" viewBox="0 0 177 179" fill="none" xmlns="http://www.w3.org/2000/svg">
<path d="M14.5448 157.234H12.8172L10.6749 152.656H4.93906L2.8198 157.234H1L7.5651 143H8.04885L14.5448 157.234ZM9.93775 151.024L7.81849 146.4L5.69923 151.024H9.93775Z" fill="white" stroke="white" stroke-width="0.25" stroke-linecap="round" stroke-linejoin="round"/>
<path d="M31.4754 157.234H29.886V151.681C29.886 150.797 29.8399 150.14 29.7247 149.732C29.6095 149.324 29.3792 148.984 29.0106 148.689C28.642 148.417 28.1813 148.258 27.5824 148.258C26.9835 148.258 26.4306 148.44 25.9239 148.825C25.4171 149.21 25.0485 149.709 24.8412 150.344C24.6339 150.978 24.5417 151.93 24.5417 153.199V157.211H22.9984V151.998C22.9984 150.978 22.9523 150.23 22.8371 149.8C22.7219 149.346 22.4916 148.984 22.123 148.689C21.7544 148.394 21.2937 148.258 20.7409 148.258C20.188 148.258 19.6582 148.44 19.1514 148.78C18.6447 149.12 18.2761 149.573 18.0457 150.117C17.8154 150.661 17.6772 151.59 17.6772 152.882V157.211H16.1338V147.012H17.7002V148.462C18.5755 147.329 19.7043 146.762 21.0173 146.762C21.7314 146.762 22.3994 146.944 22.9753 147.329C23.5742 147.714 23.9889 148.258 24.2423 148.938C24.6799 148.236 25.2098 147.692 25.8547 147.306C26.4997 146.944 27.1908 146.74 27.9049 146.74C28.8954 146.74 29.7247 147.08 30.4388 147.76C31.1299 148.44 31.4754 149.732 31.4754 151.636V157.234Z" fill="white" stroke="white" stroke-width="0.25" stroke-linecap="round" stroke-linejoin="round"/>
<path d="M34.5396 143.227C34.8851 143.227 35.1615 143.34 35.4149 143.567C35.6453 143.793 35.7604 144.088 35.7604 144.405C35.7604 144.745 35.6453 145.017 35.4149 145.244C35.1845 145.47 34.8851 145.584 34.5626 145.584C34.2171 145.584 33.9406 145.47 33.7103 145.221C33.4799 144.994 33.3647 144.7 33.3647 144.382C33.3647 144.065 33.4799 143.793 33.7103 143.544C33.9176 143.34 34.2171 143.227 34.5396 143.227ZM35.3458 157.234H33.7794V147.034H35.3458V157.234Z" fill="white" stroke="white" stroke-width="0.25" stroke-linecap="round" stroke-linejoin="round"/>
<path d="M47.9462 152.406H38.8702C38.9393 153.539 39.3079 154.423 40.022 155.103C40.713 155.783 41.5654 156.123 42.5328 156.123C44.1914 156.123 45.4583 155.33 46.3337 153.721L47.6697 154.401C47.0708 155.489 46.3798 156.282 45.5505 156.803C44.7442 157.325 43.7768 157.574 42.648 157.574C41.0816 157.574 39.8147 157.053 38.8011 155.987C37.7875 154.922 37.2808 153.675 37.2808 152.18C37.2808 150.684 37.7875 149.414 38.8011 148.372C39.8147 147.306 41.0816 146.785 42.602 146.785C44.1223 146.785 45.3662 147.284 46.3798 148.281C47.3933 149.278 47.9231 150.661 47.9462 152.406ZM46.1955 151.046C46.0112 150.185 45.5735 149.505 44.9055 149.006C44.2375 148.53 43.4543 148.281 42.5789 148.281C40.8052 148.281 39.6304 149.21 39.0545 151.046H46.1955Z" fill="white" stroke="white" stroke-width="0.25" stroke-linecap="round" stroke-linejoin="round"/>
<path d="M51.4702 157.234H49.9038V143.204H51.4702V157.234Z" fill="white" stroke="white" stroke-width="0.25" stroke-linecap="round" stroke-linejoin="round"/>
<path d="M64.9692 152.747C64.9692 154.016 64.877 154.945 64.6697 155.557C64.4624 156.169 64.0938 156.645 63.5179 157.031C62.9651 157.393 62.3431 157.575 61.6981 157.575C61.0531 157.575 60.4542 157.484 59.9014 157.28C59.3485 157.076 58.7035 156.668 57.9434 156.033L58.8187 154.764C59.5558 155.285 60.1087 155.648 60.5003 155.807C60.8919 155.988 61.2605 156.079 61.606 156.079C61.9746 156.079 62.2971 155.943 62.5965 155.693C62.896 155.444 63.1033 155.104 63.1724 154.673C63.2415 154.243 63.2876 153.608 63.2876 152.724V143.545H64.9461V152.747H64.9692Z" fill="white" stroke="white" stroke-width="0.25" stroke-linecap="round" stroke-linejoin="round"/>
<path d="M78.1224 157.234H76.579V155.738C75.4503 156.962 74.1603 157.574 72.686 157.574C71.2118 157.574 69.9678 157.03 68.9082 155.965C67.8716 154.899 67.3418 153.63 67.3418 152.157C67.3418 150.684 67.8716 149.414 68.9082 148.372C69.9678 147.329 71.2348 146.785 72.7551 146.785C74.2755 146.785 75.5424 147.397 76.556 148.598V147.057H78.0994V157.234H78.1224ZM72.8012 156.123C73.8608 156.123 74.7592 155.738 75.5194 155.013C76.2796 154.265 76.6712 153.336 76.6712 152.225C76.6712 151.114 76.3026 150.185 75.5424 149.414C74.8053 148.666 73.8839 148.281 72.8012 148.281C71.7185 148.281 70.7971 148.666 70.06 149.437C69.3228 150.208 68.9312 151.137 68.9312 152.202C68.9312 153.268 69.3228 154.174 70.06 154.967C70.8202 155.738 71.7416 156.123 72.8012 156.123Z" fill="white" stroke="white" stroke-width="0.25" stroke-linecap="round" stroke-linejoin="round"/>
<path d="M89.6173 147.057L83.4899 160.86H81.8544L83.8585 156.372L79.666 147.057H81.3015L84.7108 154.514L88.0048 147.057H89.6173Z" fill="white" stroke="white" stroke-width="0.25" stroke-linecap="round" stroke-linejoin="round"/>
<path d="M96.3437 148.236L95.3301 149.256C94.593 148.576 93.9019 148.236 93.28 148.236C92.8884 148.236 92.5659 148.349 92.2895 148.598C92.013 148.848 91.8979 149.142 91.8979 149.505C91.8979 149.868 92.0361 150.162 92.3355 150.434C92.635 150.706 93.1648 151.024 93.925 151.432C94.6852 151.817 95.261 152.248 95.6757 152.724C96.0903 153.2 96.2976 153.766 96.2976 154.469C96.2976 155.33 95.9982 156.078 95.3762 156.667C94.7543 157.257 93.9941 157.574 93.0957 157.574C91.8518 157.574 90.7922 157.053 89.9629 156.01L90.9534 154.922C91.6445 155.715 92.3355 156.101 93.0496 156.101C93.5334 156.101 93.948 155.942 94.2935 155.625C94.6391 155.307 94.8003 154.945 94.8003 154.537C94.8003 154.129 94.6391 153.766 94.3396 153.494C94.0402 153.222 93.4873 152.882 92.7502 152.52C92.013 152.157 91.4372 151.726 91.0456 151.273C90.6539 150.82 90.4697 150.23 90.4697 149.482C90.4697 148.734 90.7461 148.1 91.2989 147.578C91.8518 147.057 92.5889 146.785 93.4873 146.785C94.3857 146.785 95.3301 147.284 96.3437 148.236Z" fill="white" stroke="white" stroke-width="0.25" stroke-linecap="round" stroke-linejoin="round"/>
<path d="M103.254 146.785C104.751 146.785 106.018 147.306 107.055 148.372C108.092 149.437 108.621 150.706 108.621 152.18C108.621 153.653 108.115 154.922 107.078 155.987C106.041 157.03 104.774 157.574 103.254 157.574C101.734 157.574 100.444 157.053 99.4072 155.987C98.3706 154.922 97.8408 153.675 97.8408 152.18C97.8408 150.684 98.3706 149.414 99.4072 148.372C100.467 147.306 101.734 146.785 103.254 146.785ZM103.254 156.101C104.314 156.101 105.212 155.715 105.949 154.967C106.686 154.219 107.055 153.313 107.055 152.248C107.055 151.182 106.686 150.253 105.926 149.482C105.166 148.712 104.291 148.304 103.254 148.304C102.218 148.304 101.342 148.689 100.582 149.482C99.8219 150.276 99.4533 151.182 99.4533 152.248C99.4533 153.313 99.8219 154.219 100.536 154.967C101.25 155.715 102.148 156.101 103.254 156.101Z" fill="white" stroke="white" stroke-width="0.25" stroke-linecap="round" stroke-linejoin="round"/>
<path d="M119.84 157.234H118.273V152.384C118.273 151.251 118.227 150.503 118.112 150.095C117.997 149.687 117.836 149.347 117.628 149.075C117.421 148.803 117.145 148.576 116.822 148.44C116.5 148.304 116.108 148.236 115.647 148.236C115.187 148.236 114.726 148.349 114.288 148.576C113.851 148.803 113.459 149.12 113.136 149.505C112.814 149.913 112.607 150.321 112.491 150.775C112.376 151.228 112.307 152.112 112.307 153.472V157.257H110.741V147.057H112.307V148.599C113.344 147.397 114.542 146.808 115.947 146.808C116.684 146.808 117.375 146.989 117.974 147.375C118.573 147.76 119.033 148.281 119.333 148.939C119.632 149.596 119.794 150.639 119.794 152.021V157.234H119.84Z" fill="white" stroke="white" stroke-width="0.25" stroke-linecap="round" stroke-linejoin="round"/>
<path d="M140.364 154.741C138.867 156.645 136.817 157.574 134.214 157.574C132.002 157.574 130.206 156.894 128.8 155.511C127.395 154.129 126.681 152.406 126.681 150.321C126.681 149.029 127.004 147.828 127.649 146.74C128.294 145.652 129.192 144.79 130.344 144.156C131.496 143.544 132.739 143.227 134.076 143.227C135.412 143.227 136.609 143.476 137.669 143.975C138.729 144.473 139.604 145.221 140.318 146.196L139.074 147.148C137.761 145.584 136.126 144.79 134.191 144.79C132.601 144.79 131.242 145.334 130.09 146.445C128.939 147.533 128.363 148.893 128.363 150.48C128.363 152.066 128.916 153.403 130.044 154.469C131.173 155.534 132.624 156.078 134.398 156.078C136.195 156.078 137.738 155.33 139.051 153.811L140.364 154.741Z" fill="white" stroke="white" stroke-width="0.25" stroke-linecap="round" stroke-linejoin="round"/>
<path d="M151.629 157.234H150.063V152.383C150.063 151.431 150.04 150.774 149.971 150.389C149.925 150.004 149.786 149.641 149.579 149.301C149.372 148.961 149.095 148.689 148.75 148.508C148.404 148.326 147.99 148.236 147.506 148.236C147.022 148.236 146.561 148.349 146.101 148.576C145.663 148.802 145.271 149.12 144.949 149.505C144.626 149.913 144.419 150.321 144.304 150.774C144.189 151.228 144.12 152.111 144.12 153.471V157.257H142.553V143.227H144.12V148.598C145.156 147.397 146.354 146.808 147.759 146.808C148.496 146.808 149.187 146.989 149.786 147.374C150.385 147.76 150.846 148.281 151.145 148.938C151.445 149.596 151.606 150.638 151.606 152.021V157.234H151.629Z" fill="white" stroke="white" stroke-width="0.25" stroke-linecap="round" stroke-linejoin="round"/>
<path d="M163.077 157.234H161.511V155.693C160.474 156.894 159.276 157.483 157.871 157.483C157.134 157.483 156.443 157.302 155.844 156.917C155.245 156.532 154.785 156.01 154.485 155.353C154.186 154.696 154.024 153.653 154.024 152.27V147.035H155.591V151.885C155.591 153.018 155.637 153.766 155.752 154.174C155.867 154.582 156.028 154.922 156.236 155.194C156.443 155.466 156.72 155.693 157.042 155.829C157.365 155.965 157.756 156.033 158.217 156.033C158.678 156.033 159.138 155.92 159.576 155.693C160.014 155.466 160.405 155.149 160.705 154.764C161.027 154.356 161.235 153.948 161.35 153.494C161.465 153.041 161.534 152.157 161.534 150.797V147.012H163.1V157.234H163.077Z" fill="white" stroke="white" stroke-width="0.25" stroke-linecap="round" stroke-linejoin="round"/>
<path d="M176 157.234H174.456V155.738C173.328 156.962 172.038 157.574 170.563 157.574C169.089 157.574 167.845 157.03 166.786 155.965C165.749 154.899 165.219 153.63 165.219 152.157C165.219 150.684 165.749 149.414 166.786 148.372C167.845 147.329 169.112 146.785 170.633 146.785C172.153 146.785 173.42 147.397 174.433 148.598V147.057H175.977V157.234H176ZM170.679 156.123C171.738 156.123 172.637 155.738 173.397 155.013C174.157 154.265 174.549 153.336 174.549 152.225C174.549 151.114 174.18 150.185 173.42 149.414C172.683 148.666 171.761 148.281 170.679 148.281C169.596 148.281 168.675 148.666 167.937 149.437C167.2 150.208 166.809 151.137 166.809 152.202C166.809 153.268 167.2 154.174 167.937 154.967C168.698 155.738 169.619 156.123 170.679 156.123Z" fill="white" stroke="white" stroke-width="0.25" stroke-linecap="round" stroke-linejoin="round"/>
<path d="M88.1945 107.594C71.7012 107.594 58.2715 94.3795 58.2715 78.1509C58.2715 61.9223 71.7012 48.731 88.1945 48.731C104.688 48.731 118.095 61.9223 118.095 78.1509C118.095 94.3795 104.688 107.594 88.1945 107.594ZM88.1945 53.1507C74.1659 53.1507 62.7634 64.3702 62.7634 78.1736C62.7634 91.9769 74.1659 103.196 88.1945 103.196C102.223 103.196 113.626 91.9769 113.626 78.1736C113.626 64.3702 102.2 53.1507 88.1945 53.1507Z" fill="white"/>
<path d="M129.313 17.9968C128.069 17.9968 127.056 18.9941 127.056 20.2181V59.3616V78.0834V78.174V78.1967C127.056 99.2984 109.595 116.456 88.172 116.456C66.7952 116.456 49.3804 99.389 49.2882 78.3554C49.2652 78.3554 49.2652 78.3554 49.2421 78.3554C49.2421 78.2874 49.2882 78.242 49.2882 78.174C49.2882 76.9501 48.2747 75.9755 47.0538 75.9755C45.8099 75.9755 44.8193 76.9727 44.8193 78.174C44.8193 101.701 64.2843 120.853 88.1951 120.853C112.106 120.853 131.571 101.701 131.571 78.174V20.2181C131.571 18.9941 130.557 17.9968 129.313 17.9968Z" fill="white"/>
<path d="M60.5059 80.372C61.74 80.372 62.7404 79.3877 62.7404 78.1734C62.7404 76.9592 61.74 75.9749 60.5059 75.9749C59.2719 75.9749 58.2715 76.9592 58.2715 78.1734C58.2715 79.3877 59.2719 80.372 60.5059 80.372Z" fill="white"/>
<path d="M116.321 122.598C116.206 122.598 116.114 122.643 116.021 122.666C115.998 122.598 115.975 122.53 115.929 122.462C108.12 127.04 99.0213 129.715 89.2773 129.715C60.4139 129.715 36.9177 106.596 36.9177 78.1961C36.9177 49.796 60.4139 26.6771 89.2773 26.6771C98.6297 26.6771 107.406 29.1477 115.031 33.3861C115.054 33.3635 115.054 33.3408 115.077 33.3181C115.446 33.5675 115.86 33.7488 116.321 33.7488C117.565 33.7488 118.555 32.7515 118.555 31.5502C118.555 30.8249 118.187 30.213 117.634 29.805C117.45 29.7143 117.288 29.601 117.127 29.4877C108.88 24.9092 99.3898 22.2573 89.2773 22.2573C57.926 22.2573 32.4258 47.3482 32.4258 78.1961C32.4258 109.044 57.926 134.112 89.2773 134.112C99.3898 134.112 108.88 131.46 117.127 126.882C117.334 126.791 117.519 126.678 117.703 126.542C118.233 126.134 118.578 125.522 118.578 124.819C118.578 123.595 117.565 122.598 116.321 122.598ZM114.662 123.369C114.616 123.414 114.593 123.482 114.547 123.55C114.57 123.482 114.593 123.414 114.662 123.369Z" fill="white"/>
<path d="M129.313 13.5994C125.489 13.5994 122.402 10.5395 122.402 6.79968C122.402 3.05986 125.512 0 129.313 0C133.137 0 136.224 3.05986 136.224 6.79968C136.224 10.5395 133.137 13.5994 129.313 13.5994ZM129.313 4.39713C127.977 4.39713 126.894 5.46241 126.894 6.77702C126.894 8.09162 127.977 9.15691 129.313 9.15691C130.649 9.15691 131.732 8.09162 131.732 6.77702C131.755 5.46241 130.649 4.39713 129.313 4.39713Z" fill="white"/>
<path d="M115.86 99.6835C114.616 99.6835 113.625 98.6862 113.625 97.4849V77.9698C113.625 76.7459 114.639 75.7712 115.86 75.7712C117.104 75.7712 118.094 76.7685 118.094 77.9698V97.4849C118.094 98.7088 117.104 99.6835 115.86 99.6835Z" fill="white"/>
<path d="M120.583 117.386C120.215 116.932 120.376 116.592 120.698 116.343L120.929 116.162C121.251 115.912 121.643 115.822 121.988 116.275L122.15 116.479C122.265 115.436 122.702 114.507 123.37 113.986C124.2 113.351 124.914 113.26 125.766 113.736C125.95 112.513 126.296 111.697 127.079 111.085C128.208 110.201 129.337 110.291 130.488 111.719L133.736 115.708C134.105 116.162 133.944 116.502 133.621 116.751L133.276 117.023C132.953 117.272 132.562 117.34 132.216 116.91L129.152 113.102C128.576 112.377 128.001 112.467 127.586 112.807C127.148 113.147 126.895 113.691 126.826 114.53L130.097 118.587C130.465 119.04 130.304 119.38 129.982 119.63L129.636 119.902C129.314 120.151 128.922 120.219 128.576 119.788L125.582 116.094C125.052 115.459 124.522 115.21 123.946 115.663C123.532 115.98 123.255 116.57 123.186 117.454L126.434 121.443C126.803 121.896 126.641 122.236 126.319 122.485L125.973 122.757C125.651 123.007 125.259 123.097 124.914 122.644L120.583 117.386Z" fill="white"/>
<path d="M133.022 111.085C130.81 109.634 130.28 107.458 131.501 105.69C132.837 103.741 134.865 103.673 137.007 105.101C137.237 105.26 137.352 105.532 137.168 105.804L134.427 109.77C135.717 110.518 136.776 110.631 137.514 109.589C137.882 109.067 137.974 108.546 137.813 107.957C137.698 107.526 137.629 107.209 138.02 107.005L138.366 106.824C138.965 106.484 139.149 106.801 139.264 107.186C139.725 108.478 139.403 109.589 138.711 110.586C137.375 112.535 135.164 112.513 133.022 111.085ZM135.302 106.212C134.312 105.554 133.321 105.645 132.745 106.506C132.169 107.368 132.538 108.274 133.39 109.022L135.302 106.212Z" fill="white"/>
<path d="M138.136 103.447C135.556 102.653 134.312 100.908 134.934 98.9588C135.188 98.1881 135.694 97.5762 136.432 97.1909L133.391 96.2616C132.838 96.0802 132.769 95.7176 132.884 95.3323L133.022 94.9016C133.138 94.5163 133.414 94.2443 133.967 94.403L143.596 97.3722C144.125 97.5308 144.195 97.9162 144.079 98.2788L144.033 98.4601C143.895 98.8681 143.55 99.0041 143.135 98.9814H142.905C143.342 99.9107 143.526 100.727 143.204 101.724C142.582 103.605 140.601 104.195 138.136 103.447ZM141.453 98.7321L137.952 97.6668C137.284 97.8935 136.8 98.3695 136.616 98.9814C136.247 100.137 137.077 101.067 138.758 101.588C140.348 102.087 141.499 101.701 141.845 100.613C142.029 100.001 141.891 99.2988 141.453 98.7321Z" fill="white"/>
<path d="M134.289 93.1557L133.829 93.1104C133.253 93.0651 133.115 92.7024 133.138 92.2944L133.184 91.7505C133.23 91.3425 133.437 91.0251 134.013 91.0705L134.474 91.1158C135.05 91.1611 135.188 91.5238 135.165 91.9318L135.119 92.4758C135.073 92.8837 134.865 93.2011 134.289 93.1557ZM137.123 93.3597C136.547 93.3144 136.409 92.9517 136.432 92.5437L136.478 92.1131C136.524 91.7051 136.731 91.3878 137.307 91.4331L144.149 92.0451C144.724 92.0904 144.863 92.4531 144.84 92.8611L144.794 93.2917C144.747 93.6997 144.54 94.017 143.964 93.9717L137.123 93.3597Z" fill="white"/>
<path d="M140.532 88.6002C140.071 87.7842 139.748 86.5149 139.472 85.019C138.343 84.9283 137.882 85.3137 137.882 86.3789C137.882 86.9456 138.044 87.3989 138.389 87.7842C138.689 88.1015 138.965 88.2602 138.643 88.7588L138.458 89.0535C138.113 89.6201 137.79 89.4388 137.514 89.1895C136.708 88.4868 136.408 87.4669 136.408 86.2656C136.408 84.135 137.353 83.1604 139.334 83.1604H143.457L144.286 83.0698C144.701 83.0471 144.977 83.1151 144.977 83.7497V84.339C144.977 84.9057 144.655 84.951 144.24 84.9963L144.056 85.019C144.724 85.8123 145.162 86.7189 145.162 87.7389C145.162 89.1215 144.286 89.9828 142.881 89.9828C141.775 89.9828 141.061 89.5068 140.532 88.6002ZM143.641 86.9683C143.641 86.2883 143.296 85.563 142.743 85.087H140.716C140.946 86.243 141.13 86.8549 141.407 87.3989C141.637 87.8069 142.075 88.0109 142.582 88.0109C143.25 88.0109 143.641 87.6029 143.641 86.9683Z" fill="white"/>
<path d="M25.408 166.696V175H24.316V168.808L21.556 175H20.788L18.016 168.796V175H16.924V166.696H18.1L21.172 173.56L24.244 166.696H25.408ZM33.2599 171.46C33.2599 171.668 33.2479 171.888 33.2239 172.12H27.9679C28.0079 172.768 28.2279 173.276 28.6279 173.644C29.0359 174.004 29.5279 174.184 30.1039 174.184C30.5759 174.184 30.9679 174.076 31.2799 173.86C31.5999 173.636 31.8239 173.34 31.9519 172.972H33.1279C32.9519 173.604 32.5999 174.12 32.0719 174.52C31.5439 174.912 30.8879 175.108 30.1039 175.108C29.4799 175.108 28.9199 174.968 28.4239 174.688C27.9359 174.408 27.5519 174.012 27.2719 173.5C26.9919 172.98 26.8519 172.38 26.8519 171.7C26.8519 171.02 26.9879 170.424 27.2599 169.912C27.5319 169.4 27.9119 169.008 28.3999 168.736C28.8959 168.456 29.4639 168.316 30.1039 168.316C30.7279 168.316 31.2799 168.452 31.7599 168.724C32.2399 168.996 32.6079 169.372 32.8639 169.852C33.1279 170.324 33.2599 170.86 33.2599 171.46ZM32.1319 171.232C32.1319 170.816 32.0399 170.46 31.8559 170.164C31.6719 169.86 31.4199 169.632 31.0999 169.48C30.7879 169.32 30.4399 169.24 30.0559 169.24C29.5039 169.24 29.0319 169.416 28.6399 169.768C28.2559 170.12 28.0359 170.608 27.9799 171.232H32.1319ZM34.2933 171.688C34.2933 171.016 34.4293 170.428 34.7013 169.924C34.9733 169.412 35.3453 169.016 35.8173 168.736C36.2973 168.456 36.8333 168.316 37.4253 168.316C37.9373 168.316 38.4133 168.436 38.8533 168.676C39.2933 168.908 39.6293 169.216 39.8613 169.6V166.12H40.9653V175H39.8613V173.764C39.6453 174.156 39.3253 174.48 38.9013 174.736C38.4773 174.984 37.9813 175.108 37.4133 175.108C36.8293 175.108 36.2973 174.964 35.8173 174.676C35.3453 174.388 34.9733 173.984 34.7013 173.464C34.4293 172.944 34.2933 172.352 34.2933 171.688ZM39.8613 171.7C39.8613 171.204 39.7613 170.772 39.5613 170.404C39.3613 170.036 39.0893 169.756 38.7453 169.564C38.4093 169.364 38.0373 169.264 37.6293 169.264C37.2213 169.264 36.8493 169.36 36.5133 169.552C36.1773 169.744 35.9093 170.024 35.7093 170.392C35.5093 170.76 35.4093 171.192 35.4093 171.688C35.4093 172.192 35.5093 172.632 35.7093 173.008C35.9093 173.376 36.1773 173.66 36.5133 173.86C36.8493 174.052 37.2213 174.148 37.6293 174.148C38.0373 174.148 38.4093 174.052 38.7453 173.86C39.0893 173.66 39.3613 173.376 39.5613 173.008C39.7613 172.632 39.8613 172.196 39.8613 171.7ZM43.3747 167.356C43.1667 167.356 42.9907 167.284 42.8467 167.14C42.7027 166.996 42.6307 166.82 42.6307 166.612C42.6307 166.404 42.7027 166.228 42.8467 166.084C42.9907 165.94 43.1667 165.868 43.3747 165.868C43.5747 165.868 43.7427 165.94 43.8787 166.084C44.0227 166.228 44.0947 166.404 44.0947 166.612C44.0947 166.82 44.0227 166.996 43.8787 167.14C43.7427 167.284 43.5747 167.356 43.3747 167.356ZM43.9027 168.424V175H42.8107V168.424H43.9027ZM45.3558 171.688C45.3558 171.016 45.4918 170.428 45.7638 169.924C46.0358 169.412 46.4078 169.016 46.8798 168.736C47.3598 168.456 47.8918 168.316 48.4758 168.316C49.0518 168.316 49.5518 168.44 49.9758 168.688C50.3998 168.936 50.7158 169.248 50.9238 169.624V168.424H52.0278V175H50.9238V173.776C50.7078 174.16 50.3838 174.48 49.9518 174.736C49.5278 174.984 49.0318 175.108 48.4638 175.108C47.8798 175.108 47.3518 174.964 46.8798 174.676C46.4078 174.388 46.0358 173.984 45.7638 173.464C45.4918 172.944 45.3558 172.352 45.3558 171.688ZM50.9238 171.7C50.9238 171.204 50.8238 170.772 50.6238 170.404C50.4238 170.036 50.1518 169.756 49.8078 169.564C49.4718 169.364 49.0998 169.264 48.6918 169.264C48.2838 169.264 47.9118 169.36 47.5758 169.552C47.2398 169.744 46.9718 170.024 46.7718 170.392C46.5718 170.76 46.4718 171.192 46.4718 171.688C46.4718 172.192 46.5718 172.632 46.7718 173.008C46.9718 173.376 47.2398 173.66 47.5758 173.86C47.9118 174.052 48.2838 174.148 48.6918 174.148C49.0998 174.148 49.4718 174.052 49.8078 173.86C50.1518 173.66 50.4238 173.376 50.6238 173.008C50.8238 172.632 50.9238 172.196 50.9238 171.7ZM56.6644 171.688C56.6644 171.016 56.8004 170.428 57.0724 169.924C57.3444 169.412 57.7164 169.016 58.1884 168.736C58.6684 168.456 59.2004 168.316 59.7844 168.316C60.3604 168.316 60.8604 168.44 61.2844 168.688C61.7084 168.936 62.0244 169.248 62.2324 169.624V168.424H63.3364V175H62.2324V173.776C62.0164 174.16 61.6924 174.48 61.2604 174.736C60.8364 174.984 60.3404 175.108 59.7724 175.108C59.1884 175.108 58.6604 174.964 58.1884 174.676C57.7164 174.388 57.3444 173.984 57.0724 173.464C56.8004 172.944 56.6644 172.352 56.6644 171.688ZM62.2324 171.7C62.2324 171.204 62.1324 170.772 61.9324 170.404C61.7324 170.036 61.4604 169.756 61.1164 169.564C60.7804 169.364 60.4084 169.264 60.0004 169.264C59.5924 169.264 59.2204 169.36 58.8844 169.552C58.5484 169.744 58.2804 170.024 58.0804 170.392C57.8804 170.76 57.7804 171.192 57.7804 171.688C57.7804 172.192 57.8804 172.632 58.0804 173.008C58.2804 173.376 58.5484 173.66 58.8844 173.86C59.2204 174.052 59.5924 174.148 60.0004 174.148C60.4084 174.148 60.7804 174.052 61.1164 173.86C61.4604 173.66 61.7324 173.376 61.9324 173.008C62.1324 172.632 62.2324 172.196 62.2324 171.7ZM68.3858 168.304C69.1858 168.304 69.8338 168.548 70.3298 169.036C70.8258 169.516 71.0738 170.212 71.0738 171.124V175H69.9938V171.28C69.9938 170.624 69.8298 170.124 69.5018 169.78C69.1738 169.428 68.7258 169.252 68.1578 169.252C67.5818 169.252 67.1218 169.432 66.7778 169.792C66.4418 170.152 66.2738 170.676 66.2738 171.364V175H65.1818V168.424H66.2738V169.36C66.4898 169.024 66.7818 168.764 67.1498 168.58C67.5258 168.396 67.9378 168.304 68.3858 168.304ZM72.4496 171.688C72.4496 171.016 72.5856 170.428 72.8576 169.924C73.1296 169.412 73.5016 169.016 73.9736 168.736C74.4536 168.456 74.9896 168.316 75.5816 168.316C76.0936 168.316 76.5696 168.436 77.0096 168.676C77.4496 168.908 77.7856 169.216 78.0176 169.6V166.12H79.1216V175H78.0176V173.764C77.8016 174.156 77.4816 174.48 77.0576 174.736C76.6336 174.984 76.1376 175.108 75.5696 175.108C74.9856 175.108 74.4536 174.964 73.9736 174.676C73.5016 174.388 73.1296 173.984 72.8576 173.464C72.5856 172.944 72.4496 172.352 72.4496 171.688ZM78.0176 171.7C78.0176 171.204 77.9176 170.772 77.7176 170.404C77.5176 170.036 77.2456 169.756 76.9016 169.564C76.5656 169.364 76.1936 169.264 75.7856 169.264C75.3776 169.264 75.0056 169.36 74.6696 169.552C74.3336 169.744 74.0656 170.024 73.8656 170.392C73.6656 170.76 73.5656 171.192 73.5656 171.688C73.5656 172.192 73.6656 172.632 73.8656 173.008C74.0656 173.376 74.3336 173.66 74.6696 173.86C75.0056 174.052 75.3776 174.148 75.7856 174.148C76.1936 174.148 76.5656 174.052 76.9016 173.86C77.2456 173.66 77.5176 173.376 77.7176 173.008C77.9176 172.632 78.0176 172.196 78.0176 171.7ZM89.7582 169.084C89.7582 169.78 89.5182 170.36 89.0382 170.824C88.5662 171.28 87.8422 171.508 86.8662 171.508H85.2582V175H84.1662V166.636H86.8662C87.8102 166.636 88.5262 166.864 89.0142 167.32C89.5102 167.776 89.7582 168.364 89.7582 169.084ZM86.8662 170.608C87.4742 170.608 87.9222 170.476 88.2102 170.212C88.4982 169.948 88.6422 169.572 88.6422 169.084C88.6422 168.052 88.0502 167.536 86.8662 167.536H85.2582V170.608H86.8662ZM94.3794 168.304C94.8754 168.304 95.3234 168.412 95.7234 168.628C96.1234 168.836 96.4354 169.152 96.6594 169.576C96.8914 170 97.0074 170.516 97.0074 171.124V175H95.9274V171.28C95.9274 170.624 95.7634 170.124 95.4354 169.78C95.1074 169.428 94.6594 169.252 94.0914 169.252C93.5154 169.252 93.0554 169.432 92.7114 169.792C92.3754 170.152 92.2074 170.676 92.2074 171.364V175H91.1154V166.12H92.2074V169.36C92.4234 169.024 92.7194 168.764 93.0954 168.58C93.4794 168.396 93.9074 168.304 94.3794 168.304ZM101.659 175.108C101.043 175.108 100.483 174.968 99.9792 174.688C99.4832 174.408 99.0912 174.012 98.8032 173.5C98.5232 172.98 98.3832 172.38 98.3832 171.7C98.3832 171.028 98.5272 170.436 98.8152 169.924C99.1112 169.404 99.5112 169.008 100.015 168.736C100.519 168.456 101.083 168.316 101.707 168.316C102.331 168.316 102.895 168.456 103.399 168.736C103.903 169.008 104.299 169.4 104.587 169.912C104.883 170.424 105.031 171.02 105.031 171.7C105.031 172.38 104.879 172.98 104.575 173.5C104.279 174.012 103.875 174.408 103.363 174.688C102.851 174.968 102.283 175.108 101.659 175.108ZM101.659 174.148C102.051 174.148 102.419 174.056 102.763 173.872C103.107 173.688 103.383 173.412 103.591 173.044C103.807 172.676 103.915 172.228 103.915 171.7C103.915 171.172 103.811 170.724 103.603 170.356C103.395 169.988 103.123 169.716 102.787 169.54C102.451 169.356 102.087 169.264 101.695 169.264C101.295 169.264 100.927 169.356 100.591 169.54C100.263 169.716 99.9992 169.988 99.7992 170.356C99.5992 170.724 99.4992 171.172 99.4992 171.7C99.4992 172.236 99.5952 172.688 99.7872 173.056C99.9872 173.424 100.251 173.7 100.579 173.884C100.907 174.06 101.267 174.148 101.659 174.148ZM107.799 169.324V173.2C107.799 173.52 107.867 173.748 108.003 173.884C108.139 174.012 108.375 174.076 108.711 174.076H109.515V175H108.531C107.923 175 107.467 174.86 107.163 174.58C106.859 174.3 106.707 173.84 106.707 173.2V169.324H105.855V168.424H106.707V166.768H107.799V168.424H109.515V169.324H107.799ZM113.706 175.108C113.09 175.108 112.53 174.968 112.026 174.688C111.53 174.408 111.138 174.012 110.85 173.5C110.57 172.98 110.43 172.38 110.43 171.7C110.43 171.028 110.574 170.436 110.862 169.924C111.158 169.404 111.558 169.008 112.062 168.736C112.566 168.456 113.13 168.316 113.754 168.316C114.378 168.316 114.942 168.456 115.446 168.736C115.95 169.008 116.346 169.4 116.634 169.912C116.93 170.424 117.078 171.02 117.078 171.7C117.078 172.38 116.926 172.98 116.622 173.5C116.326 174.012 115.922 174.408 115.41 174.688C114.898 174.968 114.33 175.108 113.706 175.108ZM113.706 174.148C114.098 174.148 114.466 174.056 114.81 173.872C115.154 173.688 115.43 173.412 115.638 173.044C115.854 172.676 115.962 172.228 115.962 171.7C115.962 171.172 115.858 170.724 115.65 170.356C115.442 169.988 115.17 169.716 114.834 169.54C114.498 169.356 114.134 169.264 113.742 169.264C113.342 169.264 112.974 169.356 112.638 169.54C112.31 169.716 112.046 169.988 111.846 170.356C111.646 170.724 111.546 171.172 111.546 171.7C111.546 172.236 111.642 172.688 111.834 173.056C112.034 173.424 112.298 173.7 112.626 173.884C112.954 174.06 113.314 174.148 113.706 174.148ZM121.226 168.316C121.794 168.316 122.29 168.44 122.714 168.688C123.146 168.936 123.466 169.248 123.674 169.624V168.424H124.778V175.144C124.778 175.744 124.65 176.276 124.394 176.74C124.138 177.212 123.77 177.58 123.29 177.844C122.818 178.108 122.266 178.24 121.634 178.24C120.77 178.24 120.05 178.036 119.474 177.628C118.898 177.22 118.558 176.664 118.454 175.96H119.534C119.654 176.36 119.902 176.68 120.278 176.92C120.654 177.168 121.106 177.292 121.634 177.292C122.234 177.292 122.722 177.104 123.098 176.728C123.482 176.352 123.674 175.824 123.674 175.144V173.764C123.458 174.148 123.138 174.468 122.714 174.724C122.29 174.98 121.794 175.108 121.226 175.108C120.642 175.108 120.11 174.964 119.63 174.676C119.158 174.388 118.786 173.984 118.514 173.464C118.242 172.944 118.106 172.352 118.106 171.688C118.106 171.016 118.242 170.428 118.514 169.924C118.786 169.412 119.158 169.016 119.63 168.736C120.11 168.456 120.642 168.316 121.226 168.316ZM123.674 171.7C123.674 171.204 123.574 170.772 123.374 170.404C123.174 170.036 122.902 169.756 122.558 169.564C122.222 169.364 121.85 169.264 121.442 169.264C121.034 169.264 120.662 169.36 120.326 169.552C119.99 169.744 119.722 170.024 119.522 170.392C119.322 170.76 119.222 171.192 119.222 171.688C119.222 172.192 119.322 172.632 119.522 173.008C119.722 173.376 119.99 173.66 120.326 173.86C120.662 174.052 121.034 174.148 121.442 174.148C121.85 174.148 122.222 174.052 122.558 173.86C122.902 173.66 123.174 173.376 123.374 173.008C123.574 172.632 123.674 172.196 123.674 171.7ZM127.715 169.492C127.907 169.116 128.179 168.824 128.531 168.616C128.891 168.408 129.327 168.304 129.839 168.304V169.432H129.551C128.327 169.432 127.715 170.096 127.715 171.424V175H126.623V168.424H127.715V169.492ZM130.692 171.688C130.692 171.016 130.828 170.428 131.1 169.924C131.372 169.412 131.744 169.016 132.216 168.736C132.696 168.456 133.228 168.316 133.812 168.316C134.388 168.316 134.888 168.44 135.312 168.688C135.736 168.936 136.052 169.248 136.26 169.624V168.424H137.364V175H136.26V173.776C136.044 174.16 135.72 174.48 135.288 174.736C134.864 174.984 134.368 175.108 133.8 175.108C133.216 175.108 132.688 174.964 132.216 174.676C131.744 174.388 131.372 173.984 131.1 173.464C130.828 172.944 130.692 172.352 130.692 171.688ZM136.26 171.7C136.26 171.204 136.16 170.772 135.96 170.404C135.76 170.036 135.488 169.756 135.144 169.564C134.808 169.364 134.436 169.264 134.028 169.264C133.62 169.264 133.248 169.36 132.912 169.552C132.576 169.744 132.308 170.024 132.108 170.392C131.908 170.76 131.808 171.192 131.808 171.688C131.808 172.192 131.908 172.632 132.108 173.008C132.308 173.376 132.576 173.66 132.912 173.86C133.248 174.052 133.62 174.148 134.028 174.148C134.436 174.148 134.808 174.052 135.144 173.86C135.488 173.66 135.76 173.376 135.96 173.008C136.16 172.632 136.26 172.196 136.26 171.7ZM140.301 169.636C140.517 169.26 140.837 168.948 141.261 168.7C141.693 168.444 142.193 168.316 142.761 168.316C143.345 168.316 143.873 168.456 144.345 168.736C144.825 169.016 145.201 169.412 145.473 169.924C145.745 170.428 145.881 171.016 145.881 171.688C145.881 172.352 145.745 172.944 145.473 173.464C145.201 173.984 144.825 174.388 144.345 174.676C143.873 174.964 143.345 175.108 142.761 175.108C142.201 175.108 141.705 174.984 141.273 174.736C140.849 174.48 140.525 174.164 140.301 173.788V178.12H139.209V168.424H140.301V169.636ZM144.765 171.688C144.765 171.192 144.665 170.76 144.465 170.392C144.265 170.024 143.993 169.744 143.649 169.552C143.313 169.36 142.941 169.264 142.533 169.264C142.133 169.264 141.761 169.364 141.417 169.564C141.081 169.756 140.809 170.04 140.601 170.416C140.401 170.784 140.301 171.212 140.301 171.7C140.301 172.196 140.401 172.632 140.601 173.008C140.809 173.376 141.081 173.66 141.417 173.86C141.761 174.052 142.133 174.148 142.533 174.148C142.941 174.148 143.313 174.052 143.649 173.86C143.993 173.66 144.265 173.376 144.465 173.008C144.665 172.632 144.765 172.192 144.765 171.688ZM150.583 168.304C151.079 168.304 151.527 168.412 151.927 168.628C152.327 168.836 152.639 169.152 152.863 169.576C153.095 170 153.211 170.516 153.211 171.124V175H152.131V171.28C152.131 170.624 151.967 170.124 151.639 169.78C151.311 169.428 150.863 169.252 150.295 169.252C149.719 169.252 149.259 169.432 148.915 169.792C148.579 170.152 148.411 170.676 148.411 171.364V175H147.319V166.12H148.411V169.36C148.627 169.024 148.923 168.764 149.299 168.58C149.683 168.396 150.111 168.304 150.583 168.304ZM160.658 168.424L156.698 178.096H155.57L156.866 174.928L154.214 168.424H155.426L157.49 173.752L159.53 168.424H160.658Z" fill="white"/>
</svg>
