<svg width="112" height="31" viewBox="0 0 112 31" fill="none" xmlns="http://www.w3.org/2000/svg">
<path d="M35.8133 19.1957L33.6709 23.5564C33.5122 23.8882 33.2381 24.0361 32.8485 24L32.3399 23.9567C32.0803 23.9495 31.9107 23.8521 31.8314 23.6646C31.752 23.477 31.7665 23.2931 31.8747 23.1127L39.2543 8.88368C39.5645 8.29216 39.972 7.99639 40.477 7.99639L41.3643 7.97475C41.6312 7.97475 41.8404 8.06492 41.9919 8.24527C42.1434 8.42561 42.2083 8.69252 42.1867 9.04599L41.4076 23.5131C41.3931 23.8377 41.1731 24 40.7475 24L39.9901 23.9784C39.6294 23.9784 39.4599 23.78 39.4815 23.3832L39.7628 19.1957H35.8133ZM36.6032 17.5942H39.8711L40.3796 9.88999L36.6032 17.5942ZM47.7508 7.95311C47.7508 7.95311 47.9744 7.95311 48.4216 7.95311C48.602 7.95311 48.7318 8.02164 48.8112 8.1587C48.8905 8.28855 48.9086 8.44364 48.8653 8.62399L45.1647 23.1776C44.8473 24.4112 44.3134 25.3273 43.5632 25.9261C42.95 26.4166 42.3441 26.7412 41.7454 26.8999C41.4785 26.9865 41.3017 26.9432 41.2152 26.7701L40.9555 26.2615C40.8112 25.9946 40.8689 25.8034 41.1286 25.688C41.3811 25.5726 41.6011 25.4536 41.7886 25.3309C41.969 25.2155 42.171 25.0532 42.3946 24.844C42.8491 24.4184 43.1881 23.7836 43.4117 22.9396L47.1124 8.44004C47.1989 8.11542 47.4117 7.95311 47.7508 7.95311ZM56.99 8.28855C57.329 8.53381 57.6212 8.98106 57.8665 9.6303C58.1189 10.2723 58.2596 10.8278 58.2885 11.2967C58.3245 11.7656 58.3462 12.0433 58.3534 12.1298C58.3678 12.3246 58.2163 12.4689 57.8989 12.5627L57.2822 12.7466C57.1379 12.7827 56.9864 12.743 56.8277 12.6276C56.669 12.505 56.586 12.3427 56.5788 12.1407C56.4634 11.0081 56.2109 10.2038 55.8214 9.72768C55.6266 9.65555 55.4102 9.61948 55.1721 9.61948C54.4508 9.58341 53.7258 10.0956 52.9972 11.156C52.2686 12.2092 51.6446 13.6483 51.1253 15.4734C50.4472 17.789 50.3029 19.6862 50.6924 21.165C50.9088 21.9874 51.2371 22.4527 51.6771 22.5609C52.7592 22.4671 53.6537 21.67 54.3606 20.1695C54.3822 20.1262 54.4111 20.0649 54.4472 19.9856C54.4905 19.899 54.5193 19.8449 54.5337 19.8233C54.5482 19.7944 54.5698 19.7511 54.5987 19.6934C54.6347 19.6285 54.66 19.5924 54.6744 19.5852C54.6888 19.5708 54.7105 19.5455 54.7393 19.5095C54.7682 19.4734 54.7934 19.4554 54.8151 19.4554C54.8439 19.4554 54.8728 19.4518 54.9016 19.4445C54.9377 19.4301 54.9738 19.4301 55.0098 19.4445C55.0531 19.459 55.1 19.4734 55.1505 19.4878C55.201 19.495 55.2551 19.5131 55.3128 19.5419L56.0162 19.8341C56.1532 19.8846 56.2217 20 56.2217 20.1803C56.229 20.3535 56.1821 20.5338 56.0811 20.7214C55.3886 21.9766 54.7141 22.8674 54.0576 23.394C53.4012 23.9134 52.586 24.1731 51.6122 24.1731C51.1649 24.1731 50.6924 24.018 50.1947 23.7078C49.394 23.2173 48.9143 22.1605 48.7556 20.5374C48.6041 18.9071 48.788 17.0712 49.3074 15.0298C49.6392 13.6808 50.1226 12.4581 50.7574 11.3616C51.3922 10.2579 52.128 9.38503 52.9648 8.74301C53.8088 8.10099 54.6636 7.77998 55.5292 7.77998C55.7096 7.77998 55.9512 7.83048 56.2542 7.93147C56.5644 8.03246 56.8097 8.15149 56.99 8.28855ZM66.9891 8.44004C67.0756 8.12263 67.2884 7.96032 67.6275 7.95311H68.3416C68.6518 7.95311 68.8286 8.12263 68.8718 8.46168C69.2758 12.7466 69.4021 15.8702 69.2506 17.8323L74.9205 8.37511C75.0792 8.09378 75.2993 7.95311 75.5806 7.95311H76.3164C76.4751 7.96754 76.5905 8.03968 76.6626 8.16952C76.742 8.29937 76.76 8.45807 76.7167 8.64563L72.9296 23.5131C72.843 23.8377 72.6194 24 72.2587 24H71.6203C71.4399 24 71.3101 23.9351 71.2307 23.8052C71.1514 23.6682 71.1333 23.5059 71.1766 23.3183L73.7303 13.2985C73.2181 14.2002 72.5003 15.3796 71.577 16.8368C70.6536 18.2867 70.0693 19.2101 69.8241 19.6069C69.4489 20.2056 69.0774 20.4941 68.7095 20.4725L68.2659 20.4509C67.8619 20.4292 67.678 20.1335 67.714 19.5636C67.815 17.9982 67.7718 15.8593 67.5842 13.147L64.944 23.5131C64.8574 23.8377 64.6374 24 64.2839 24H63.6347C63.4544 24 63.3245 23.9351 63.2452 23.8052C63.1658 23.6682 63.1478 23.5059 63.1911 23.3183L66.9891 8.44004ZM81.703 24C81.703 24 79.9321 24 76.3901 24C76.2098 24 76.0799 23.9351 76.0006 23.8052C75.9212 23.6682 75.9032 23.5059 75.9465 23.3183L79.4632 9.48963H78.5759C78.3523 9.48963 78.2152 9.45717 78.1647 9.39224C78.1142 9.32011 78.1178 9.1578 78.1755 8.90532L78.3162 8.39675C78.3667 8.20198 78.428 8.07935 78.5001 8.02885C78.5723 7.97836 78.7093 7.95311 78.9113 7.95311H86.1394C86.3486 7.95311 86.4821 7.99279 86.5398 8.07214C86.6047 8.14427 86.6119 8.28855 86.5615 8.50496L86.3991 9.06763C86.3342 9.34896 86.1503 9.48963 85.8473 9.48963H81.2702L79.9826 14.5428H83.8996C84.0294 14.5428 84.1232 14.5933 84.1809 14.6943C84.2386 14.7881 84.2495 14.9071 84.2134 15.0514L84.0511 15.6032C83.9789 15.9134 83.7589 16.0685 83.391 16.0685H79.593L77.9591 22.4743H82.2116C82.3414 22.4743 82.4352 22.5248 82.4929 22.6258C82.5506 22.7196 82.5615 22.8386 82.5254 22.9829L82.3739 23.5347C82.3018 23.8449 82.0781 24 81.703 24ZM90.0953 9.34896C90.0953 9.34896 88.9736 13.7385 86.7301 22.5176C86.86 22.532 87.199 22.5392 87.7473 22.5392C88.6778 22.5392 89.5399 22.0018 90.3334 20.927C91.1269 19.8521 91.7653 18.395 92.2486 16.5555C92.9195 13.9585 92.9664 12.0541 92.3893 10.8422C92.3099 10.6763 92.2089 10.4887 92.0863 10.2795C91.7256 9.69522 91.062 9.38503 90.0953 9.34896ZM88.2666 9.40307L87.1305 9.53291C86.8491 9.53291 86.7301 9.36339 86.7734 9.02435L86.86 8.39675C86.896 8.16591 87.0223 8.02525 87.2387 7.97475C87.8302 7.85933 88.6706 7.80162 89.7599 7.80162C91.2748 7.80162 92.4181 8.2092 93.19 9.02435C93.9619 9.8395 94.3803 11.0189 94.4452 12.5627C94.5317 14.6691 94.0665 16.9378 93.0493 19.3688C92.4145 20.8765 91.6715 22.0162 90.8203 22.7881C89.8753 23.6537 88.7319 24.0866 87.3902 24.0866C86.5967 24.0866 85.9979 24.0577 85.594 24C85.1972 23.9423 84.9519 23.8305 84.8582 23.6646C84.7644 23.4914 84.7608 23.2353 84.8473 22.8963L88.2666 9.40307ZM97.7859 8.44004C97.8725 8.11542 98.0925 7.95311 98.446 7.95311H99.0952C99.2756 7.95311 99.4018 8.02164 99.4739 8.1587C99.5533 8.29576 99.5713 8.45807 99.5281 8.64563L95.7409 23.5131C95.6543 23.8377 95.4343 24 95.0808 24H94.4316C94.2512 24 94.1214 23.9351 94.042 23.8052C93.9627 23.6682 93.9446 23.5059 93.9879 23.3183L97.7859 8.44004ZM101.907 19.1957L99.7646 23.5564C99.6059 23.8882 99.3318 24.0361 98.9423 24L98.4337 23.9567C98.174 23.9495 98.0045 23.8521 97.9251 23.6646C97.8458 23.477 97.8602 23.2931 97.9684 23.1127L105.348 8.88368C105.658 8.29216 106.066 7.99639 106.571 7.99639L107.458 7.97475C107.725 7.97475 107.934 8.06492 108.086 8.24527C108.237 8.42561 108.302 8.69252 108.28 9.04599L107.501 23.5131C107.487 23.8377 107.267 24 106.841 24L106.084 23.9784C105.723 23.9784 105.554 23.78 105.575 23.3832L105.857 19.1957H101.907ZM102.697 17.5942H105.965L106.473 9.88999L102.697 17.5942Z" fill="black"/>
<g clip-path="url(#clip0_44_26)">
<mask id="mask0_44_26" style="mask-type:luminance" maskUnits="userSpaceOnUse" x="0" y="0" width="25" height="31">
<path d="M25 0H0V31H25V0Z" fill="white"/>
</mask>
<g mask="url(#mask0_44_26)">
<path d="M12.3672 24.8703C8.70966 24.8703 5.73151 21.8159 5.73151 18.0646C5.73151 14.3134 8.70966 11.2642 12.3672 11.2642C16.0247 11.2642 18.9978 14.3134 18.9978 18.0646C18.9978 21.8159 16.0247 24.8703 12.3672 24.8703ZM12.3672 12.2858C9.25623 12.2858 6.72763 14.8792 6.72763 18.0699C6.72763 21.2605 9.25623 23.8539 12.3672 23.8539C15.4781 23.8539 18.0068 21.2605 18.0068 18.0699C18.0068 14.8792 15.473 12.2858 12.3672 12.2858Z" fill="black"/>
<path d="M21.4858 4.15985C21.2099 4.15985 20.9852 4.39037 20.9852 4.6733V13.7213V18.0488V18.0698V18.075C20.9852 22.9527 17.1131 26.9187 12.3624 26.9187C7.62187 26.9187 3.76 22.9737 3.73959 18.1117C3.73447 18.1117 3.73447 18.1117 3.72937 18.1117C3.72937 18.096 3.73959 18.0855 3.73959 18.0698C3.73959 17.7869 3.51481 17.5616 3.24406 17.5616C2.96822 17.5616 2.74857 17.7921 2.74857 18.0698C2.74857 23.508 7.06509 27.9351 12.3675 27.9351C17.6699 27.9351 21.9864 23.508 21.9864 18.0698V4.6733C21.9864 4.39037 21.7616 4.15985 21.4858 4.15985Z" fill="black"/>
<path d="M6.22701 18.578C6.50066 18.578 6.72251 18.3505 6.72251 18.0698C6.72251 17.7891 6.50066 17.5616 6.22701 17.5616C5.95335 17.5616 5.73151 17.7891 5.73151 18.0698C5.73151 18.3505 5.95335 18.578 6.22701 18.578Z" fill="black"/>
<path d="M18.6044 28.3385C18.5789 28.3385 18.5584 28.349 18.538 28.3542C18.5329 28.3385 18.5278 28.3228 18.5176 28.3071C16.7859 29.3654 14.7681 29.9836 12.6073 29.9836C6.20659 29.9836 0.996119 24.6397 0.996119 18.075C0.996119 11.5104 6.20659 6.16644 12.6073 6.16644C14.6813 6.16644 16.6275 6.73751 18.3183 7.71721C18.3235 7.71196 18.3235 7.70672 18.3286 7.70148C18.4103 7.75914 18.5022 7.80103 18.6044 7.80103C18.8802 7.80103 19.0999 7.57051 19.0999 7.29286C19.0999 7.1252 19.0182 6.98372 18.8956 6.88944C18.8547 6.86847 18.819 6.84227 18.7832 6.81609C16.9544 5.75778 14.8498 5.14478 12.6073 5.14478C5.65488 5.14478 0 10.9445 0 18.075C0 25.2055 5.65488 31 12.6073 31C14.8498 31 16.9544 30.387 18.7832 29.3287C18.8292 29.3078 18.87 29.2816 18.9109 29.2501C19.0284 29.1558 19.105 29.0144 19.105 28.852C19.105 28.569 18.8802 28.3385 18.6044 28.3385ZM18.2366 28.5167C18.2264 28.5271 18.2213 28.5429 18.2111 28.5585C18.2162 28.5429 18.2213 28.5271 18.2366 28.5167Z" fill="black"/>
<g filter="url(#filter0_d_44_26)">
<path d="M21.4855 3.14349C20.6375 3.14349 19.953 2.43621 19.953 1.57174C19.953 0.707284 20.6426 0 21.4855 0C22.3335 0 23.018 0.707284 23.018 1.57174C23.018 2.43621 22.3335 3.14349 21.4855 3.14349ZM21.4855 1.0164C21.1892 1.0164 20.9491 1.26264 20.9491 1.56651C20.9491 1.87038 21.1892 2.11662 21.4855 2.11662C21.7818 2.11662 22.0219 1.87038 22.0219 1.56651C22.027 1.26264 21.7818 1.0164 21.4855 1.0164Z" fill="black"/>
</g>
<path d="M18.502 23.0419C18.2261 23.0419 18.0065 22.8114 18.0065 22.5337V18.0228C18.0065 17.7399 18.2312 17.5146 18.502 17.5146C18.7778 17.5146 18.9975 17.7451 18.9975 18.0228V22.5337C18.9975 22.8166 18.7778 23.0419 18.502 23.0419Z" fill="black"/>
<path d="M19.5493 27.1335C19.4676 27.0288 19.5034 26.9502 19.5749 26.8925L19.6259 26.8506C19.6975 26.793 19.7843 26.772 19.8609 26.8768L19.8967 26.924C19.9222 26.683 20.0193 26.4682 20.1674 26.3477C20.3514 26.201 20.5097 26.18 20.6987 26.29C20.7396 26.0071 20.8162 25.8185 20.9899 25.6771C21.2402 25.4727 21.4905 25.4937 21.7459 25.8238L22.4662 26.7458C22.5479 26.8506 22.5121 26.9292 22.4406 26.9868L22.364 27.0497C22.2925 27.1074 22.2057 27.1231 22.129 27.0235L21.4496 26.1434C21.3219 25.9757 21.1942 25.9966 21.1023 26.0753C21.0052 26.1538 20.949 26.2796 20.9337 26.4734L21.6591 27.4112C21.7408 27.516 21.705 27.5946 21.6335 27.6522L21.5569 27.7151C21.4854 27.7727 21.3985 27.7884 21.3219 27.6889L20.6578 26.8349C20.5404 26.6882 20.4229 26.6306 20.2951 26.7354C20.2032 26.8087 20.1419 26.9449 20.1266 27.1493L20.8469 28.0714C20.9286 28.1761 20.8928 28.2547 20.8213 28.3124L20.7447 28.3752C20.6732 28.4329 20.5863 28.4538 20.5097 28.349L19.5493 27.1335Z" fill="black"/>
<path d="M22.3082 25.677C21.8178 25.3417 21.7003 24.8387 21.9711 24.4301C22.2674 23.9795 22.7169 23.9638 23.192 24.2939C23.2431 24.3305 23.2686 24.3934 23.2277 24.4563L22.6198 25.3731C22.9059 25.546 23.1409 25.5722 23.3043 25.3312C23.3861 25.2107 23.4065 25.0902 23.3708 24.954C23.3452 24.8545 23.3299 24.7811 23.4167 24.734L23.4934 24.6921C23.6262 24.6135 23.667 24.6868 23.6926 24.7759C23.7947 25.0745 23.7232 25.3312 23.57 25.5618C23.2737 26.0123 22.7833 26.0071 22.3082 25.677ZM22.814 24.5506C22.5943 24.3986 22.3747 24.4196 22.2469 24.6187C22.1192 24.8178 22.201 25.0273 22.39 25.2002L22.814 24.5506Z" fill="black"/>
<path d="M23.4421 23.9115C22.87 23.7281 22.5942 23.3247 22.7321 22.8741C22.7883 22.696 22.9007 22.5546 23.0641 22.4655L22.3898 22.2507C22.2672 22.2088 22.2519 22.1249 22.2774 22.0359L22.3081 21.9363C22.3336 21.8473 22.3949 21.7844 22.5175 21.8211L24.6528 22.5074C24.7703 22.5441 24.7856 22.6331 24.7601 22.717L24.7498 22.7589C24.7192 22.8532 24.6426 22.8846 24.5506 22.8794H24.4995C24.5966 23.0942 24.6375 23.2828 24.566 23.5133C24.428 23.9482 23.9887 24.0844 23.4421 23.9115ZM24.1777 22.8218L23.4012 22.5755C23.2531 22.6279 23.1458 22.7379 23.105 22.8794C23.0232 23.1466 23.2072 23.3614 23.5801 23.4819C23.9325 23.5971 24.1879 23.5081 24.2646 23.2566C24.3054 23.1151 24.2748 22.9527 24.1777 22.8218Z" fill="black"/>
<path d="M22.589 21.5327L22.4868 21.5223C22.3591 21.5118 22.3285 21.428 22.3336 21.3336L22.3438 21.2079C22.354 21.1136 22.4 21.0403 22.5277 21.0507L22.6299 21.0612C22.7576 21.0717 22.7882 21.1555 22.7831 21.2498L22.7729 21.3756C22.7627 21.4699 22.7167 21.5432 22.589 21.5327ZM23.2173 21.5799C23.0896 21.5694 23.059 21.4856 23.0641 21.3913L23.0743 21.2917C23.0845 21.1974 23.1305 21.1241 23.2582 21.1346L24.7754 21.276C24.9031 21.2865 24.9337 21.3703 24.9286 21.4646L24.9184 21.5642C24.9082 21.6585 24.8622 21.7318 24.7345 21.7213L23.2173 21.5799Z" fill="black"/>
<path d="M23.9732 20.4797C23.871 20.2911 23.7995 19.9977 23.7382 19.652C23.4879 19.631 23.3857 19.7201 23.3857 19.9663C23.3857 20.0973 23.4215 20.2021 23.4981 20.2911C23.5645 20.3645 23.6258 20.4012 23.5543 20.5164L23.5134 20.5845C23.4368 20.7155 23.3653 20.6736 23.304 20.616C23.1252 20.4535 23.0588 20.2178 23.0588 19.9401C23.0588 19.4476 23.2682 19.2224 23.7075 19.2224H24.6219L24.8058 19.2014C24.8977 19.1962 24.9591 19.2119 24.9591 19.3586V19.4948C24.9591 19.6258 24.8875 19.6363 24.7956 19.6467L24.7547 19.652C24.9029 19.8353 24.9999 20.0449 24.9999 20.2807C24.9999 20.6003 24.8058 20.7993 24.4942 20.7993C24.249 20.7993 24.0907 20.6893 23.9732 20.4797ZM24.6628 20.1025C24.6628 19.9454 24.5862 19.7777 24.4636 19.6677H24.014C24.0651 19.9349 24.106 20.0763 24.1673 20.2021C24.2183 20.2964 24.3154 20.3435 24.4278 20.3435C24.5759 20.3435 24.6628 20.2492 24.6628 20.1025Z" fill="black"/>
</g>
</g>
<defs>
<filter id="filter0_d_44_26" x="19.853" y="-1.1" width="5.26497" height="5.34349" filterUnits="userSpaceOnUse" color-interpolation-filters="sRGB">
<feFlood flood-opacity="0" result="BackgroundImageFix"/>
<feColorMatrix in="SourceAlpha" type="matrix" values="0 0 0 0 0 0 0 0 0 0 0 0 0 0 0 0 0 0 127 0" result="hardAlpha"/>
<feOffset dx="1"/>
<feGaussianBlur stdDeviation="0.55"/>
<feComposite in2="hardAlpha" operator="out"/>
<feColorMatrix type="matrix" values="0 0 0 0 0 0 0 0 0 0 0 0 0 0 0 0 0 0 0.25 0"/>
<feBlend mode="normal" in2="BackgroundImageFix" result="effect1_dropShadow_44_26"/>
<feBlend mode="normal" in="SourceGraphic" in2="effect1_dropShadow_44_26" result="shape"/>
</filter>
<clipPath id="clip0_44_26">
<rect width="25" height="31" fill="white"/>
</clipPath>
</defs>
</svg>
