<svg width="80" height="95" viewBox="0 0 80 95" fill="none" xmlns="http://www.w3.org/2000/svg">
<g clip-path="url(#clip0_73_25)">
<path d="M39.575 76.2154C27.8709 76.2154 18.3408 66.8551 18.3408 55.3594C18.3408 43.8637 27.8709 34.5194 39.575 34.5194C51.2791 34.5194 60.7928 43.8637 60.7928 55.3594C60.7928 66.8551 51.2791 76.2154 39.575 76.2154ZM39.575 37.6502C29.6199 37.6502 21.5284 45.5977 21.5284 55.3754C21.5284 65.1532 29.6199 73.1006 39.575 73.1006C49.53 73.1006 57.6216 65.1532 57.6216 55.3754C57.6216 45.5977 49.5137 37.6502 39.575 37.6502Z" fill="white"/>
<path d="M68.7541 12.7482C67.8713 12.7482 67.1521 13.4546 67.1521 14.3216V42.0493V55.3111V55.3753V55.3914C67.1521 70.339 54.7614 82.493 39.5591 82.493C24.3895 82.493 12.0315 70.4032 11.9662 55.5038C11.9498 55.5038 11.9498 55.5038 11.9335 55.5038C11.9335 55.4556 11.9662 55.4235 11.9662 55.3753C11.9662 54.5084 11.2469 53.818 10.3805 53.818C9.49782 53.818 8.79492 54.5244 8.79492 55.3753C8.79492 72.0409 22.6078 85.6077 39.5755 85.6077C56.5432 85.6077 70.356 72.0409 70.356 55.3753V14.3216C70.356 13.4546 69.6368 12.7482 68.7541 12.7482Z" fill="white"/>
<path d="M19.9264 56.9324C20.8021 56.9324 21.512 56.2351 21.512 55.375C21.512 54.5149 20.8021 53.8176 19.9264 53.8176C19.0507 53.8176 18.3408 54.5149 18.3408 55.375C18.3408 56.2351 19.0507 56.9324 19.9264 56.9324Z" fill="white"/>
<path d="M59.5341 86.8436C59.4524 86.8436 59.387 86.8758 59.3216 86.8918C59.3053 86.8436 59.2889 86.7955 59.2562 86.7473C53.7148 89.9905 47.2579 91.885 40.3433 91.885C19.8611 91.885 3.18758 75.5085 3.18758 55.391C3.18758 35.2736 19.8611 18.897 40.3433 18.897C46.98 18.897 53.208 20.6471 58.6187 23.6495C58.6351 23.6334 58.6351 23.6173 58.6514 23.6013C58.9129 23.7779 59.2072 23.9063 59.5341 23.9063C60.4168 23.9063 61.1197 23.1999 61.1197 22.349C61.1197 21.8352 60.8582 21.4017 60.4659 21.1127C60.3351 21.0485 60.2207 20.9682 60.1063 20.8879C54.2542 17.6447 47.5194 15.7662 40.3433 15.7662C18.0956 15.7662 0 33.5396 0 55.391C0 77.2425 18.0956 94.9998 40.3433 94.9998C47.5194 94.9998 54.2542 93.1213 60.1063 89.8781C60.2534 89.8139 60.3841 89.7336 60.5149 89.6373C60.8909 89.3483 61.1361 88.9148 61.1361 88.4171C61.1361 87.5501 60.4168 86.8436 59.5341 86.8436ZM58.3572 87.3895C58.3245 87.4216 58.3081 87.4698 58.2754 87.518C58.2918 87.4698 58.3081 87.4216 58.3572 87.3895Z" fill="white"/>
<path d="M68.7536 9.63326C66.04 9.63326 63.8496 7.46578 63.8496 4.81663C63.8496 2.16748 66.0564 0 68.7536 0C71.4671 0 73.6575 2.16748 73.6575 4.81663C73.6575 7.46578 71.4671 9.63326 68.7536 9.63326ZM68.7536 3.11475C67.8055 3.11475 67.0372 3.86936 67.0372 4.80058C67.0372 5.73179 67.8055 6.4864 68.7536 6.4864C69.7017 6.4864 70.47 5.73179 70.47 4.80058C70.4863 3.86936 69.7017 3.11475 68.7536 3.11475Z" fill="white"/>
<path d="M59.2067 70.6117C58.324 70.6117 57.6211 69.9053 57.6211 69.0543V55.2306C57.6211 54.3636 58.3403 53.6732 59.2067 53.6732C60.0894 53.6732 60.7923 54.3797 60.7923 55.2306V69.0543C60.7923 69.9213 60.0894 70.6117 59.2067 70.6117Z" fill="white"/>
<path d="M62.5583 83.1511C62.2968 82.83 62.4112 82.5891 62.6401 82.4125L62.8035 82.2841C63.0324 82.1075 63.3103 82.0433 63.5555 82.3644L63.6699 82.5089C63.7516 81.7703 64.0622 81.112 64.5363 80.7428C65.1248 80.2932 65.6315 80.229 66.2363 80.5661C66.3671 79.6992 66.6123 79.1212 67.1681 78.6877C67.9691 78.0615 68.77 78.1257 69.5874 79.1372L71.8922 81.963C72.1538 82.2841 72.0393 82.5249 71.8105 82.7015L71.5653 82.8942C71.3364 83.0708 71.0586 83.119 70.8134 82.8139L68.6393 80.1166C68.2306 79.6028 67.8219 79.667 67.5277 79.9079C67.2171 80.1487 67.0373 80.534 66.9883 81.1281L69.3095 84.002C69.571 84.3231 69.4566 84.564 69.2277 84.7406L68.9825 84.9332C68.7537 85.1098 68.4758 85.158 68.2306 84.853L66.1055 82.2359C65.7296 81.7864 65.3536 81.6098 64.9449 81.9309C64.6507 82.1556 64.4545 82.5731 64.4055 83.1992L66.7104 86.025C66.9719 86.3461 66.8575 86.5869 66.6286 86.7635L66.3834 86.9562C66.1546 87.1328 65.8767 87.197 65.6315 86.8759L62.5583 83.1511Z" fill="white"/>
<path d="M71.3857 78.6875C69.8164 77.6599 69.4404 76.1186 70.3068 74.8663C71.2549 73.4855 72.6934 73.4374 74.2136 74.4489C74.3771 74.5612 74.4588 74.7539 74.328 74.9466L72.3828 77.7563C73.2982 78.2861 74.0502 78.3664 74.5732 77.6278C74.8348 77.2586 74.9002 76.8893 74.7858 76.4718C74.704 76.1668 74.655 75.942 74.9329 75.7975L75.1781 75.6691C75.6031 75.4282 75.7338 75.653 75.8156 75.926C76.1425 76.8411 75.9137 77.6278 75.4233 78.3343C74.4752 79.715 72.9059 79.699 71.3857 78.6875ZM73.004 75.2356C72.3011 74.77 71.5982 74.8342 71.1895 75.4443C70.7808 76.0544 71.0424 76.6966 71.6472 77.2264L73.004 75.2356Z" fill="white"/>
<path d="M75.0144 73.2768C73.1836 72.7148 72.3009 71.4785 72.7422 70.0978C72.9221 69.5519 73.2817 69.1184 73.8048 68.8455L71.647 68.1872C71.2547 68.0587 71.2057 67.8019 71.2874 67.5289L71.3855 67.2239C71.4672 66.9509 71.6634 66.7583 72.0557 66.8706L78.8885 68.9739C79.2645 69.0863 79.3136 69.3592 79.2318 69.6161L79.1991 69.7446C79.101 70.0336 78.8559 70.1299 78.5616 70.1138H78.3981C78.7087 70.7721 78.8395 71.3501 78.6107 72.0565C78.1693 73.3891 76.7635 73.8066 75.0144 73.2768ZM77.3683 69.9372L74.8836 69.1826C74.4096 69.3432 74.0663 69.6803 73.9355 70.1138C73.674 70.9327 74.2625 71.5909 75.4558 71.9602C76.5837 72.3134 77.401 72.0405 77.6462 71.2698C77.777 70.8363 77.6789 70.3386 77.3683 69.9372Z" fill="white"/>
<path d="M72.2848 65.9874L71.9579 65.9553C71.5492 65.9231 71.4512 65.6663 71.4675 65.3773L71.5002 64.9919C71.5329 64.7029 71.68 64.4782 72.0887 64.5103L72.4156 64.5424C72.8243 64.5745 72.9224 64.8314 72.906 65.1204L72.8733 65.5057C72.8406 65.7947 72.6935 66.0195 72.2848 65.9874ZM74.2955 66.1319C73.8868 66.0998 73.7887 65.8429 73.8051 65.5539L73.8378 65.2488C73.8704 64.9598 74.0176 64.735 74.4262 64.7671L79.2812 65.2006C79.6898 65.2328 79.7879 65.4896 79.7716 65.7786L79.7389 66.0837C79.7062 66.3727 79.559 66.5975 79.1504 66.5654L74.2955 66.1319Z" fill="white"/>
<path d="M76.7141 62.7604C76.3872 62.1824 76.1583 61.2833 75.9622 60.2237C75.1612 60.1594 74.8343 60.4324 74.8343 61.187C74.8343 61.5884 74.9487 61.9095 75.1939 62.1824C75.4064 62.4072 75.6026 62.5196 75.3737 62.8728L75.2429 63.0815C74.9977 63.4829 74.7689 63.3545 74.5727 63.1779C74.0006 62.6801 73.7881 61.9576 73.7881 61.1067C73.7881 59.5975 74.4583 58.9071 75.8641 58.9071H78.7901L79.3786 58.8429C79.6728 58.8268 79.869 58.875 79.869 59.3245V59.742C79.869 60.1434 79.6401 60.1755 79.3459 60.2076L79.2151 60.2237C79.6892 60.7856 79.9998 61.4278 79.9998 62.1503C79.9998 63.1297 79.3786 63.7398 78.3815 63.7398C77.5968 63.7398 77.0901 63.4026 76.7141 62.7604ZM78.9209 61.6044C78.9209 61.1228 78.6757 60.609 78.2834 60.2718H76.8449C77.0084 61.0906 77.1391 61.5241 77.3353 61.9095C77.4987 62.1985 77.8093 62.343 78.169 62.343C78.643 62.343 78.9209 62.054 78.9209 61.6044Z" fill="white"/>
</g>
<defs>
<clipPath id="clip0_73_25">
<rect width="80" height="95" fill="white"/>
</clipPath>
</defs>
</svg>
