<svg width="20" height="20" viewBox="0 0 20 20" fill="none" xmlns="http://www.w3.org/2000/svg">
<g clip-path="url(#clip0_150_6)">
<path fill-rule="evenodd" clip-rule="evenodd" d="M10 0C15.5191 0 20 4.48086 20 10C20 15.5191 15.5191 20 10 20C4.48086 20 0 15.5191 0 10C0 4.48086 4.48086 0 10 0ZM10 4.09355C6.53391 4.09355 3.84766 6.6325 3.84766 10.0615C3.84766 11.8552 4.58297 13.405 5.78004 14.4758C5.88027 14.5662 5.94094 14.6912 5.9459 14.8261L5.97934 15.9204C5.99047 16.2695 6.35066 16.4961 6.67008 16.3562L7.89062 15.8177C7.99461 15.7719 8.10973 15.7632 8.21867 15.7929C8.77941 15.9477 9.37734 16.0294 10 16.0294C13.4661 16.0294 16.1523 13.4904 16.1523 10.0615C16.1523 6.6325 13.4661 4.09355 10 4.09355ZM6.30613 11.8069L8.11344 8.93992C8.40062 8.48441 9.01711 8.37051 9.44789 8.69359L10.8851 9.7718C11.0175 9.87086 11.1983 9.86961 11.3295 9.77059L13.2705 8.29746C13.5292 8.10066 13.8684 8.41137 13.6939 8.68617L11.8878 11.5519C11.6006 12.0075 10.9841 12.1213 10.5534 11.7982L9.11617 10.72C8.98367 10.621 8.80297 10.6222 8.67176 10.7213L6.72949 12.1956C6.47078 12.3924 6.13156 12.0817 6.30613 11.8069Z" fill="#FF9F47"/>
</g>
<defs>
<clipPath id="clip0_150_6">
<rect width="20" height="20" fill="white"/>
</clipPath>
</defs>
</svg>
