<svg width="18" height="17" viewBox="0 0 18 17" fill="none" xmlns="http://www.w3.org/2000/svg">
<g clip-path="url(#clip0_29_77)">
<path d="M12.8766 11.4431C12.525 11.1111 12.0482 10.9246 11.551 10.9246C11.0538 10.9246 10.577 11.1111 10.2254 11.4431L9.93663 11.7151C8.36504 10.4709 6.91221 9.09878 5.59488 7.61451L5.88363 7.3418C6.05779 7.17736 6.19594 6.98212 6.2902 6.76724C6.38446 6.55237 6.43298 6.32206 6.43298 6.08947C6.43298 5.85688 6.38446 5.62657 6.2902 5.41169C6.19594 5.19681 6.05779 5.00158 5.88363 4.83714L4.29213 3.33476C3.94051 3.00278 3.46368 2.81628 2.9665 2.81628C2.46932 2.81628 1.99249 3.00278 1.64087 3.33476L0.767874 4.15926C0.342522 4.56405 0.0774481 5.09465 0.017093 5.66209C-0.043262 6.22953 0.104771 6.79932 0.436374 7.27593C3.03174 10.9692 6.38296 14.1349 10.2929 16.587C10.799 16.8961 11.4013 17.0334 12.001 16.9766C12.6006 16.9197 13.162 16.6719 13.5929 16.2739L14.4666 15.4494C14.8181 15.1173 15.0156 14.667 15.0156 14.1974C15.0156 13.7278 14.8181 13.2775 14.4666 12.9454L12.8766 11.4431Z" fill="#AF0314"/>
<path d="M8.625 0C8.42609 0 8.23532 0.0746278 8.09467 0.207466C7.95402 0.340304 7.875 0.520472 7.875 0.708333C7.875 0.896195 7.95402 1.07636 8.09467 1.2092C8.23532 1.34204 8.42609 1.41667 8.625 1.41667C10.7128 1.41892 12.7145 2.20323 14.1908 3.59754C15.6672 4.99186 16.4976 6.88231 16.5 8.85417C16.5 9.04203 16.579 9.2222 16.7197 9.35503C16.8603 9.48787 17.0511 9.5625 17.25 9.5625C17.4489 9.5625 17.6397 9.48787 17.7803 9.35503C17.921 9.2222 18 9.04203 18 8.85417C17.997 6.50676 17.0083 4.2563 15.2508 2.59643C13.4933 0.936562 11.1105 0.00281183 8.625 0Z" fill="#AF0314"/>
<path d="M8.625 4.25004C9.91744 4.25154 11.1565 4.7371 12.0704 5.60023C12.9843 6.46335 13.4984 7.63357 13.5 8.85421C13.5 9.04207 13.579 9.22224 13.7197 9.35508C13.8603 9.48791 14.0511 9.56254 14.25 9.56254C14.4489 9.56254 14.6397 9.48791 14.7803 9.35508C14.921 9.22224 15 9.04207 15 8.85421C14.998 7.25796 14.3257 5.72763 13.1306 4.59891C11.9355 3.47019 10.3151 2.83525 8.625 2.83337C8.42609 2.83337 8.23532 2.908 8.09467 3.04084C7.95402 3.17368 7.875 3.35385 7.875 3.54171C7.875 3.72957 7.95402 3.90974 8.09467 4.04257C8.23532 4.17541 8.42609 4.25004 8.625 4.25004Z" fill="#AF0314"/>
<path d="M8.625 7.08329C9.12228 7.08329 9.59919 7.26986 9.95083 7.60196C10.3025 7.93405 10.5 8.38447 10.5 8.85413C10.5 9.04199 10.579 9.22216 10.7197 9.35499C10.8603 9.48783 11.0511 9.56246 11.25 9.56246C11.4489 9.56246 11.6397 9.48783 11.7803 9.35499C11.921 9.22216 12 9.04199 12 8.85413C11.999 8.00904 11.6431 7.19883 11.0104 6.60126C10.3777 6.00369 9.5198 5.66756 8.625 5.66663C8.42609 5.66663 8.23532 5.74125 8.09467 5.87409C7.95402 6.00693 7.875 6.1871 7.875 6.37496C7.875 6.56282 7.95402 6.74299 8.09467 6.87583C8.23532 7.00866 8.42609 7.08329 8.625 7.08329Z" fill="#AF0314"/>
</g>
<defs>
<clipPath id="clip0_29_77">
<rect width="18" height="17" fill="white"/>
</clipPath>
</defs>
</svg>
