<svg width="20" height="20" viewBox="0 0 20 20" fill="none" xmlns="http://www.w3.org/2000/svg">
<g clip-path="url(#clip0_152_7)">
<path d="M14.3074 13.4624C13.9167 13.0718 13.3869 12.8524 12.8345 12.8524C12.2821 12.8524 11.7523 13.0718 11.3616 13.4624L11.0408 13.7824C9.29455 12.3187 7.68029 10.7044 6.21658 8.9582L6.53742 8.63737C6.73093 8.44391 6.88444 8.21422 6.98917 7.96142C7.0939 7.70862 7.1478 7.43767 7.1478 7.16404C7.1478 6.8904 7.0939 6.61945 6.98917 6.36665C6.88444 6.11386 6.73093 5.88417 6.53742 5.6907L4.76908 3.9232C4.3784 3.53264 3.84859 3.31323 3.29616 3.31323C2.74374 3.31323 2.21393 3.53264 1.82325 3.9232L0.853247 4.8932C0.380634 5.36943 0.0861077 5.99366 0.0190465 6.66124C-0.0480147 7.32882 0.116466 7.99915 0.484914 8.55987C3.36865 12.9049 7.09223 16.6293 11.4366 19.514C11.9989 19.8777 12.6682 20.0393 13.3345 19.9724C14.0008 19.9054 14.6245 19.6139 15.1033 19.1457L16.0741 18.1757C16.4647 17.785 16.6841 17.2552 16.6841 16.7028C16.6841 16.1504 16.4647 15.6206 16.0741 15.2299L14.3074 13.4624Z" fill="white"/>
<path d="M9.58333 0C9.36232 0 9.15036 0.0877974 8.99408 0.244078C8.8378 0.400358 8.75 0.61232 8.75 0.833333C8.75 1.05435 8.8378 1.26631 8.99408 1.42259C9.15036 1.57887 9.36232 1.66667 9.58333 1.66667C11.9032 1.66931 14.1272 2.59204 15.7676 4.23241C17.408 5.87278 18.3307 8.09683 18.3333 10.4167C18.3333 10.6377 18.4211 10.8496 18.5774 11.0059C18.7337 11.1622 18.9457 11.25 19.1667 11.25C19.3877 11.25 19.5996 11.1622 19.7559 11.0059C19.9122 10.8496 20 10.6377 20 10.4167C19.9967 7.65501 18.8982 5.00741 16.9454 3.05462C14.9926 1.10184 12.345 0.00330804 9.58333 0Z" fill="white"/>
<path d="M9.58333 4.99992C11.0194 5.00168 12.3961 5.57293 13.4115 6.58837C14.427 7.60381 14.9982 8.98054 15 10.4166C15 10.6376 15.0878 10.8496 15.2441 11.0058C15.4004 11.1621 15.6123 11.2499 15.8333 11.2499C16.0544 11.2499 16.2663 11.1621 16.4226 11.0058C16.5789 10.8496 16.6667 10.6376 16.6667 10.4166C16.6645 8.53865 15.9175 6.73825 14.5896 5.41035C13.2617 4.08244 11.4613 3.33546 9.58333 3.33325C9.36232 3.33325 9.15036 3.42105 8.99408 3.57733C8.8378 3.73361 8.75 3.94557 8.75 4.16659C8.75 4.3876 8.8378 4.59956 8.99408 4.75584C9.15036 4.91212 9.36232 4.99992 9.58333 4.99992Z" fill="white"/>
<path d="M9.58333 8.33341C10.1359 8.33341 10.6658 8.55291 11.0565 8.94361C11.4472 9.33431 11.6667 9.86421 11.6667 10.4167C11.6667 10.6378 11.7545 10.8497 11.9107 11.006C12.067 11.1623 12.279 11.2501 12.5 11.2501C12.721 11.2501 12.933 11.1623 13.0893 11.006C13.2455 10.8497 13.3333 10.6378 13.3333 10.4167C13.3322 9.42252 12.9368 8.46934 12.2338 7.76632C11.5307 7.06329 10.5776 6.66785 9.58333 6.66675C9.36232 6.66675 9.15036 6.75455 8.99408 6.91083C8.8378 7.06711 8.75 7.27907 8.75 7.50008C8.75 7.7211 8.8378 7.93306 8.99408 8.08934C9.15036 8.24562 9.36232 8.33341 9.58333 8.33341Z" fill="white"/>
</g>
<defs>
<clipPath id="clip0_152_7">
<rect width="20" height="20" fill="white"/>
</clipPath>
</defs>
</svg>
