<svg width="35" height="35" viewBox="0 0 35 35" fill="none" xmlns="http://www.w3.org/2000/svg">
<path d="M30.625 27.3438H27.3438C27.0537 27.3438 26.7755 27.2285 26.5704 27.0234C26.3652 26.8183 26.25 26.5401 26.25 26.25C26.25 25.9599 26.3652 25.6817 26.5704 25.4766C26.7755 25.2715 27.0537 25.1562 27.3438 25.1562H30.625C30.9151 25.1562 31.1933 25.041 31.3984 24.8359C31.6035 24.6308 31.7188 24.3526 31.7188 24.0625V10.9375C31.7188 10.6474 31.6035 10.3692 31.3984 10.1641C31.1933 9.95898 30.9151 9.84375 30.625 9.84375H4.375C4.08492 9.84375 3.80672 9.95898 3.6016 10.1641C3.39648 10.3692 3.28125 10.6474 3.28125 10.9375V24.0625C3.28125 24.3526 3.39648 24.6308 3.6016 24.8359C3.80672 25.041 4.08492 25.1562 4.375 25.1562H7.65625C7.94633 25.1562 8.22453 25.2715 8.42965 25.4766C8.63477 25.6817 8.75 25.9599 8.75 26.25C8.75 26.5401 8.63477 26.8183 8.42965 27.0234C8.22453 27.2285 7.94633 27.3438 7.65625 27.3438H4.375C3.50476 27.3438 2.67016 26.998 2.05481 26.3827C1.43945 25.7673 1.09375 24.9327 1.09375 24.0625V10.9375C1.09375 10.0673 1.43945 9.23266 2.05481 8.61731C2.67016 8.00195 3.50476 7.65625 4.375 7.65625H30.625C31.4952 7.65625 32.3298 8.00195 32.9452 8.61731C33.5605 9.23266 33.9062 10.0673 33.9062 10.9375V24.0625C33.9062 24.9327 33.5605 25.7673 32.9452 26.3827C32.3298 26.998 31.4952 27.3438 30.625 27.3438Z" fill="white"/>
<path d="M27.3438 33.9062H7.65625C7.36617 33.9062 7.08797 33.791 6.88285 33.5859C6.67773 33.3808 6.5625 33.1026 6.5625 32.8125V21.875C6.5625 21.5849 6.67773 21.3067 6.88285 21.1016C7.08797 20.8965 7.36617 20.7812 7.65625 20.7812H27.3438C27.6338 20.7812 27.912 20.8965 28.1171 21.1016C28.3223 21.3067 28.4375 21.5849 28.4375 21.875V32.8125C28.4375 33.1026 28.3223 33.3808 28.1171 33.5859C27.912 33.791 27.6338 33.9062 27.3438 33.9062ZM8.75 31.7188H26.25V22.9688H8.75V31.7188Z" fill="white"/>
<path d="M27.3438 9.84375C27.0537 9.84375 26.7755 9.72852 26.5704 9.5234C26.3652 9.31828 26.25 9.04008 26.25 8.75V3.28125H8.75V8.75C8.75 9.04008 8.63477 9.31828 8.42965 9.5234C8.22453 9.72852 7.94633 9.84375 7.65625 9.84375C7.36617 9.84375 7.08797 9.72852 6.88285 9.5234C6.67773 9.31828 6.5625 9.04008 6.5625 8.75V2.1875C6.5625 1.89742 6.67773 1.61922 6.88285 1.4141C7.08797 1.20898 7.36617 1.09375 7.65625 1.09375H27.3438C27.6338 1.09375 27.912 1.20898 28.1171 1.4141C28.3223 1.61922 28.4375 1.89742 28.4375 2.1875V8.75C28.4375 9.04008 28.3223 9.31828 28.1171 9.5234C27.912 9.72852 27.6338 9.84375 27.3438 9.84375Z" fill="white"/>
<path d="M28.4375 12.0312H26.25V14.2188H28.4375V12.0312Z" fill="white"/>
<path d="M24.0625 12.0312H19.6875V14.2188H24.0625V12.0312Z" fill="white"/>
</svg>
